nRows=4
nColumns=145
DataType=double
version=3
OpenSimVersion=4.2-2021-03-12-fcedec9
endheader
time	ground_force_1_vx	ground_force_1_vy	ground_force_1_vz	ground_force_1_px	ground_force_1_py	ground_force_1_pz	ground_force_2_vx	ground_force_2_vy	ground_force_2_vz	ground_force_2_px	ground_force_2_py	ground_force_2_pz	ground_force_3_vx	ground_force_3_vy	ground_force_3_vz	ground_force_3_px	ground_force_3_py	ground_force_3_pz	ground_force_4_vx	ground_force_4_vy	ground_force_4_vz	ground_force_4_px	ground_force_4_py	ground_force_4_pz	ground_force_5_vx	ground_force_5_vy	ground_force_5_vz	ground_force_5_px	ground_force_5_py	ground_force_5_pz	ground_force_6_vx	ground_force_6_vy	ground_force_6_vz	ground_force_6_px	ground_force_6_py	ground_force_6_pz	ground_force_7_vx	ground_force_7_vy	ground_force_7_vz	ground_force_7_px	ground_force_7_py	ground_force_7_pz	ground_force_8_vx	ground_force_8_vy	ground_force_8_vz	ground_force_8_px	ground_force_8_py	ground_force_8_pz	ground_force_9_vx	ground_force_9_vy	ground_force_9_vz	ground_force_9_px	ground_force_9_py	ground_force_9_pz	ground_force_10_vx	ground_force_10_vy	ground_force_10_vz	ground_force_10_px	ground_force_10_py	ground_force_10_pz	ground_force_11_vx	ground_force_11_vy	ground_force_11_vz	ground_force_11_px	ground_force_11_py	ground_force_11_pz	ground_force_12_vx	ground_force_12_vy	ground_force_12_vz	ground_force_12_px	ground_force_12_py	ground_force_12_pz	ground_force_13_vx	ground_force_13_vy	ground_force_13_vz	ground_force_13_px	ground_force_13_py	ground_force_13_pz	ground_force_14_vx	ground_force_14_vy	ground_force_14_vz	ground_force_14_px	ground_force_14_py	ground_force_14_pz	ground_force_15_vx	ground_force_15_vy	ground_force_15_vz	ground_force_15_px	ground_force_15_py	ground_force_15_pz	ground_force_16_vx	ground_force_16_vy	ground_force_16_vz	ground_force_16_px	ground_force_16_py	ground_force_16_pz	ground_force_17_vx	ground_force_17_vy	ground_force_17_vz	ground_force_17_px	ground_force_17_py	ground_force_17_pz	ground_force_18_vx	ground_force_18_vy	ground_force_18_vz	ground_force_18_px	ground_force_18_py	ground_force_18_pz	ground_force_19_vx	ground_force_19_vy	ground_force_19_vz	ground_force_19_px	ground_force_19_py	ground_force_19_pz	ground_force_20_vx	ground_force_20_vy	ground_force_20_vz	ground_force_20_px	ground_force_20_py	ground_force_20_pz	ground_force_21_vx	ground_force_21_vy	ground_force_21_vz	ground_force_21_px	ground_force_21_py	ground_force_21_pz	ground_force_22_vx	ground_force_22_vy	ground_force_22_vz	ground_force_22_px	ground_force_22_py	ground_force_22_pz	ground_force_23_vx	ground_force_23_vy	ground_force_23_vz	ground_force_23_px	ground_force_23_py	ground_force_23_pz	ground_force_24_vx	ground_force_24_vy	ground_force_24_vz	ground_force_24_px	ground_force_24_py	ground_force_24_pz
4.050000000000	1.668225990983	27.487018137582	-25.584448022338	0.873075850520	0.780707655931	-0.260694926680	-4.091762958230	99.260401207560	-37.030072145447	0.901357129053	0.659010103081	-0.269220439864	-1.136374560119	3.299534932199	-0.881470096165	0.897413979681	0.640949772920	-0.264118846917	-1.032368475499	3.693360342556	-0.007674088809	0.902738234740	0.518714583124	-0.318268039260	-0.800845269271	2.657202223383	-1.729784984404	0.879725176878	0.738762703421	-0.256563543429	5.836323712340	27.185710285152	-50.599405065663	0.852641485836	0.820051783822	-0.258299394842	-0.004036352254	1.961397728650	-0.136925374151	0.895062676253	0.514347219271	-0.241819716239	2.175477686569	-0.448512568700	0.085211416605	0.496851677781	0.587027636167	-0.252826367789	0.000000000000	-0.000000000000	-0.000000000000	0.496851677781	0.587027636167	-0.252826367789	-0.467888514699	5.730983785400	-1.257167319823	0.816086844736	0.860018822545	-0.242466912303	-2.191994228546	7.894062742839	-1.240566432803	0.818566098733	0.831425703000	-0.247564544376	-3.027334548185	4.383665234550	-1.934866342020	0.843100366506	0.773858527939	-0.266039159203	2.762470825019	4.796443144384	-0.649741115872	0.840482530002	0.886845714454	-0.217218771027	0.844487957556	4.284402556883	-2.094844446998	0.834979090078	0.892699826963	-0.219968576039	-0.511526865028	4.453771930672	-3.498449393161	0.829146203222	0.893173234532	-0.220438449851	0.539889681233	1.157857147703	-0.517560440642	0.856337055002	0.890326882403	-0.218227217231	0.399725397707	1.539970360188	-0.759575249511	0.853709034480	0.889991885659	-0.217973678181	0.138562726558	2.266402187800	-1.545792998534	0.849038327936	0.891729806277	-0.218694677840	57.630451756697	92.847088256657	-28.864342911845	0.863889578370	0.839168202736	-0.264574370637	-46.415219279453	146.836953340906	-131.707377490330	0.845785486911	0.896410054823	-0.231095154692	185.714355132693	236.805040157946	-100.051080566673	0.849609055224	0.848171593169	-0.273823940898	14.997066179260	-2.437113358274	2.469013310430	0.840734064365	0.424124652140	-0.281141864126	154.656641020284	-22.046611200202	32.968052157458	0.840542366205	0.423416450908	-0.276149364557	38.883281701851	-8.038131971131	6.070996249637	0.840492479238	0.426095879664	-0.288696988164
4.060000000000	-0.364202336882	27.071379675293	-25.647090596497	0.877979795677	0.780093602580	-0.260220497044	-9.228688458395	82.211530306296	-31.402600476500	0.914315338305	0.660461221761	-0.268344664795	-1.387215223224	3.240755898152	-0.897274256342	0.911847791224	0.641768858977	-0.263011211705	-1.296685937934	3.645817593348	-0.026149096763	0.924877758521	0.520228401828	-0.316842738673	-1.012326194594	2.589374101481	-1.730896640284	0.887577133425	0.738442638545	-0.255666734319	4.276464064887	34.906757146674	-65.367220947996	0.854926910829	0.818047577839	-0.257797971140	-0.179990082519	2.156548608184	-0.160136085453	0.919753614392	0.518603612243	-0.240557546698	2.424904042471	-0.423589839985	0.098173719152	0.519073311737	0.577501552874	-0.251946988794	0.000000000000	-0.000000000000	-0.000000000000	0.519073311737	0.577501552874	-0.251946988794	-0.611155311459	5.581897356359	-1.239788854400	0.815861471002	0.855649253852	-0.242234283853	-2.420935759897	7.573586292976	-1.234669559796	0.820229235361	0.827262181073	-0.247213819172	-3.129638633631	4.062532109644	-1.833149724981	0.848494719382	0.771377247891	-0.265521139814	2.753728473656	4.985515186855	-0.672515181363	0.838493114112	0.884163888013	-0.217193824677	0.797163254117	4.319700347791	-2.105968942244	0.832601670811	0.889624288847	-0.219949696671	-0.576845869219	4.625729045142	-3.611442690586	0.826748663690	0.889704707552	-0.220400590970	0.535327263993	1.200241276498	-0.537088281762	0.854076116529	0.888691863725	-0.218274994716	0.394928296840	1.644199666020	-0.813358372217	0.851477213200	0.888183209870	-0.218010477281	0.103995518193	2.308699046015	-1.577798443333	0.846698441185	0.889601781010	-0.218722307432	31.077460715262	57.049183584508	-17.834675181261	0.864877418097	0.837936158140	-0.264421500306	-49.130318966080	150.859942284664	-135.556533730086	0.843099078285	0.893996241057	-0.231131611803	143.463572265747	203.896477248737	-85.509150924351	0.849996588817	0.845921947125	-0.273659304421	10.803983053586	-1.344890315389	1.782705838055	0.868250317507	0.424790170033	-0.279178539199	103.339004370718	-10.783444316603	22.027916360499	0.868082436637	0.424114682101	-0.274180651527	26.475742972211	-4.456824313027	4.150249311040	0.867945808774	0.426695428204	-0.286748299188
4.070000000000	-1.893861865007	21.369126320326	-20.578349010164	0.883993666331	0.781608411963	-0.260145839299	-10.439835930187	57.232489251172	-22.173447411217	0.927714120285	0.664442588663	-0.268532450029	-1.625177543972	3.175479181402	-0.891912679391	0.926671967307	0.645378324944	-0.263073916299	-1.530947523451	3.557991767143	-0.021240142444	0.946659562456	0.525117330684	-0.317143613597	-1.229769815930	2.549754255211	-1.737711065634	0.896378707218	0.740430512909	-0.255422596829	0.991830186429	35.888077880262	-67.758568516828	0.858582483718	0.818092914085	-0.257442712243	-0.416385002141	2.675994068753	-0.199285616337	0.943192263348	0.524851156723	-0.240926815881	2.678524785777	-0.348186465544	0.094597804827	0.539851263948	0.565356503605	-0.250245758479	0.000000000000	-0.000000000000	-0.000000000000	0.539851263948	0.565356503605	-0.250245758479	-0.781846000620	5.426715782322	-1.175746399754	0.817351296036	0.853312868595	-0.241838106138	-2.607376749269	7.249464410584	-1.197504068225	0.823455723597	0.825251893826	-0.246839775620	-3.201757920820	3.762920597198	-1.708884840930	0.855037798257	0.771236597772	-0.265336847961	2.704749959087	5.109258323829	-0.698573221075	0.838332854921	0.883212796529	-0.216977118159	0.740739380394	4.333608622687	-2.110840759286	0.832089951397	0.888290274405	-0.219691024176	-0.963563093502	7.041144859739	-5.458180184568	0.826240263726	0.888002705416	-0.220098361176	0.524053475594	1.233864068319	-0.553737978814	0.853592386698	0.888709255614	-0.218175902741	0.375895411115	1.708240106374	-0.847418581529	0.851032577531	0.888038663268	-0.217891861077	0.064117717232	2.323492961425	-1.588677501545	0.846169027148	0.889153831832	-0.218568606927	11.267489400669	23.620898649175	-7.423443394994	0.867216961126	0.838693614811	-0.264383222399	-44.891649302398	133.156186209088	-119.485829963589	0.842209037851	0.893303381566	-0.230952356324	101.448588310198	160.249465940380	-66.952554174560	0.851796083504	0.845721774079	-0.273512868685	8.771975960072	-0.676019696488	1.394310599264	0.895728365668	0.427903594198	-0.279081785156	52.193486089489	-2.974945003646	10.796480574156	0.895618266652	0.427233210781	-0.274081603820	17.010696327664	-2.048939001907	2.561934960205	0.895298502851	0.429775983168	-0.286653665904
4.080000000000	-1.911238123730	11.999462997283	-11.826738968460	0.887871850074	0.785654162528	-0.260368825009	-7.245317841754	28.437572685896	-11.227251802138	0.939222146685	0.671686066523	-0.268799012380	-1.862656783950	3.088359923422	-0.897855415414	0.939617215327	0.652402659028	-0.263251866567	-1.765230027692	3.446586328768	-0.030202532355	0.967318624189	0.533563947238	-0.317337197166	-1.727419422582	2.983676580548	-2.097895016573	0.903085483513	0.745269155286	-0.255448069013	-1.631519906031	30.425158047589	-58.419660770251	0.860078110705	0.820386782967	-0.257513251789	-0.604224222505	2.642008450159	-0.200823601009	0.964448665758	0.534221311246	-0.241160593823	2.950688612195	-0.209895377686	0.096454037591	0.557969830692	0.550896579816	-0.249469889915	0.000000000000	-0.000000000000	-0.000000000000	0.557969830692	0.550896579816	-0.249469889915	-1.045250074997	5.262951117650	-1.036826164629	0.816632438920	0.852922412614	-0.241907086532	-2.792377361899	6.916018486682	-1.187459378346	0.824568621790	0.825321707973	-0.246898793973	-3.318286035405	3.566816918387	-1.678996361169	0.859596729470	0.773497191020	-0.265458762930	2.696597285598	5.275643623645	-0.699144980942	0.835680268554	0.884188923405	-0.217170762712	0.726839942434	4.328211412725	-2.107804332132	0.829102672330	0.888836009860	-0.219865150818	-1.021149661841	7.533382133098	-5.829800361462	0.823283443295	0.888159585769	-0.220247889753	0.525305447550	1.284645234523	-0.572709593429	0.850535639913	0.890685794251	-0.218439647266	0.365094261634	1.776965417669	-0.881960623139	0.848027248334	0.889846951509	-0.218144162458	0.044746990030	2.329674653793	-1.597997208860	0.843097617857	0.890635304396	-0.218802152795	0.954296776302	2.306376647342	-0.712262272692	0.867267986688	0.841616001733	-0.264640229264	-33.499711509157	100.494503516065	-90.572212420510	0.838820393358	0.894493509978	-0.231174586978	62.687932225832	109.382661278160	-44.844985663471	0.851377126266	0.847589530447	-0.273714723211	5.775207758124	-0.101477594049	0.897708190237	0.922619087394	0.434208344440	-0.278973381337	17.695497927246	0.044265268228	3.597794527183	0.922563619224	0.433543923521	-0.273971499968	9.705209529843	-0.588316033239	1.425445156256	0.922058103560	0.436035911784	-0.286547633465
